{
	"asset":{
		"generator":"Khronos glTF Blender I/O v4.0.44",
		"version":"2.0"
	},
	"scene":0,
	"scenes":[
		{
			"name":"Scene",
			"nodes":[
				2
			]
		}
	],
	"nodes":[
		{
			"mesh":0,
			"name":"Ball9_Material_#34_0"
		},
		{
			"children":[
				0
			],
			"name":"Object_47",
			"translation":[
				2.4634313583374023,
				-80.79534149169922,
				-53.4383544921875
			]
		},
		{
			"children":[
				1
			],
			"name":"Ball9"
		}
	],
	"materials":[
		{
			"doubleSided":true,
			"name":"Material_34",
			"pbrMetallicRoughness":{
				"baseColorTexture":{
					"index":0
				},
				"metallicFactor":0,
				"roughnessFactor":0.20000000298023224
			}
		}
	],
	"meshes":[
		{
			"name":"Mesh_0",
			"primitives":[
				{
					"attributes":{
						"POSITION":0,
						"NORMAL":1,
						"TEXCOORD_0":2
					},
					"indices":3,
					"material":0
				}
			]
		}
	],
	"textures":[
		{
			"sampler":0,
			"source":0
		}
	],
	"images":[
		{
			"mimeType":"image/png",
			"name":"Image_0",
			"uri":"Image_0.png"
		}
	],
	"accessors":[
		{
			"bufferView":0,
			"componentType":5126,
			"count":119,
			"max":[
				0.4044342041015625,
				83.63865661621094,
				56.26600646972656
			],
			"min":[
				-5.3312835693359375,
				77.9520263671875,
				50.61070251464844
			],
			"type":"VEC3"
		},
		{
			"bufferView":1,
			"componentType":5126,
			"count":119,
			"type":"VEC3"
		},
		{
			"bufferView":2,
			"componentType":5126,
			"count":119,
			"type":"VEC2"
		},
		{
			"bufferView":3,
			"componentType":5123,
			"count":540,
			"type":"SCALAR"
		}
	],
	"bufferViews":[
		{
			"buffer":0,
			"byteLength":1428,
			"byteOffset":0,
			"target":34962
		},
		{
			"buffer":0,
			"byteLength":1428,
			"byteOffset":1428,
			"target":34962
		},
		{
			"buffer":0,
			"byteLength":952,
			"byteOffset":2856,
			"target":34962
		},
		{
			"buffer":0,
			"byteLength":1080,
			"byteOffset":3808,
			"target":34963
		}
	],
	"samplers":[
		{
			"magFilter":9729,
			"minFilter":9987
		}
	],
	"buffers":[
		{
			"byteLength":4888,
			"uri":"Ball9.bin"
		}
	]
}
