{
	"asset":{
		"generator":"Khronos glTF Blender I/O v4.0.44",
		"version":"2.0"
	},
	"scene":0,
	"scenes":[
		{
			"name":"Scene",
			"nodes":[
				2
			]
		}
	],
	"nodes":[
		{
			"mesh":0,
			"name":"Ball11_Material_#38_0"
		},
		{
			"children":[
				0
			],
			"name":"Object_53",
			"translation":[
				-101.01311492919922,
				-80.79533386230469,
				17.432559967041016
			]
		},
		{
			"children":[
				1
			],
			"name":"Ball11"
		}
	],
	"materials":[
		{
			"doubleSided":true,
			"name":"Material_38",
			"pbrMetallicRoughness":{
				"baseColorTexture":{
					"index":0
				},
				"metallicFactor":0,
				"roughnessFactor":0.20000000298023224
			}
		}
	],
	"meshes":[
		{
			"name":"Mesh_0",
			"primitives":[
				{
					"attributes":{
						"POSITION":0,
						"NORMAL":1,
						"TEXCOORD_0":2
					},
					"indices":3,
					"material":0
				}
			]
		}
	],
	"textures":[
		{
			"sampler":0,
			"source":0
		}
	],
	"images":[
		{
			"mimeType":"image/png",
			"name":"Image_1",
			"uri":"Image_1.png"
		}
	],
	"accessors":[
		{
			"bufferView":0,
			"componentType":5126,
			"count":119,
			"max":[
				103.79281616210938,
				83.68658447265625,
				-14.556098937988281
			],
			"min":[
				98.23333740234375,
				77.90412139892578,
				-20.30890655517578
			],
			"type":"VEC3"
		},
		{
			"bufferView":1,
			"componentType":5126,
			"count":119,
			"type":"VEC3"
		},
		{
			"bufferView":2,
			"componentType":5126,
			"count":119,
			"type":"VEC2"
		},
		{
			"bufferView":3,
			"componentType":5123,
			"count":540,
			"type":"SCALAR"
		}
	],
	"bufferViews":[
		{
			"buffer":0,
			"byteLength":1428,
			"byteOffset":0,
			"target":34962
		},
		{
			"buffer":0,
			"byteLength":1428,
			"byteOffset":1428,
			"target":34962
		},
		{
			"buffer":0,
			"byteLength":952,
			"byteOffset":2856,
			"target":34962
		},
		{
			"buffer":0,
			"byteLength":1080,
			"byteOffset":3808,
			"target":34963
		}
	],
	"samplers":[
		{
			"magFilter":9729,
			"minFilter":9987
		}
	],
	"buffers":[
		{
			"byteLength":4888,
			"uri":"Ball11.bin"
		}
	]
}
